<svg width="112" height="102" viewBox="0 0 112 102" fill="none" xmlns="http://www.w3.org/2000/svg">
<rect width="112" height="102" rx="28" fill="#7ED957"/>
<g clip-path="url(#clip0_153_3)">
<path d="M86.9502 17C85.6063 17 84.4959 17.7975 84.1289 18.9575L71.3189 50.8575L78.5245 53.3225L90.0002 20.2625C90.1241 19.6825 90.0145 19.0934 89.7714 18.6312C89.4045 17.9334 88.7897 17.4486 88.0558 17.2175C87.6888 17.0997 87.3171 17 86.9502 17ZM48.6345 21.7487C44.8506 21.7487 41.4432 23.6247 39.3702 26.6425C38.6363 26.6425 38.1502 26.7377 37.5402 26.9688L39.2558 28.8175C39.6227 28.6997 39.842 28.7178 40.2089 28.6H40.8189L41.0858 28.1287C42.5488 25.5777 45.4702 23.96 48.5202 23.96C52.4232 23.96 55.8545 26.5247 56.8314 30.1225L57.0602 31.0287H58.2802C60.5963 31.0287 62.4358 32.5377 63.0458 34.5087H65.6002C64.9902 31.3777 62.2976 28.9398 59.0045 28.7087C57.4176 24.5309 53.3906 21.7487 48.6345 21.7487ZM31.6689 23.8875C31.3639 23.8603 31.0208 23.9464 30.7158 24.1775C30.1058 24.6397 30.082 25.3466 30.4489 25.8088L33.8039 29.6875C32.6363 31.0152 31.8119 32.6102 31.5545 34.4H33.9945C34.209 33.317 34.6855 32.3202 35.3289 31.4637L46.2327 44.0425C46.1278 44.2872 46.0802 44.55 46.0802 44.84C46.0802 46.1178 47.1763 47.16 48.5202 47.16C49.8641 47.16 50.9602 46.1178 50.9602 44.84C50.9602 43.5622 49.8641 42.52 48.5202 42.52C48.4153 42.52 48.3152 42.5427 48.2152 42.5562L32.4314 24.3225C32.2503 24.0914 31.9739 23.9147 31.6689 23.8875ZM30.2202 35.56C29.8532 35.56 29.472 35.6914 29.2289 35.9225C28.9859 36.2714 29.0002 36.5886 29.0002 36.9375L35.1002 74.0575C35.2241 74.5197 35.7102 75 36.3202 75H57.0602C54.3771 73.0289 53.4002 70.2286 53.4002 67.6775C53.4002 60.2553 60.3627 55.1622 65.4858 52.38L68.0402 36.9375C68.0402 36.5886 68.0545 36.2623 67.8114 36.0312C67.5684 35.6823 67.1871 35.56 66.8202 35.56H45.2414L49.2445 40.3088C51.5606 40.6577 53.4002 42.6378 53.4002 44.84C53.4002 47.3911 51.2032 49.48 48.5202 49.48C45.8371 49.48 43.6402 47.3911 43.6402 44.84V44.7312L35.7102 35.56H30.2202ZM69.8702 52.8512C65.8432 54.5912 55.8402 59.7886 55.8402 67.6775C55.8402 67.895 55.8592 68.1125 55.8783 68.33C55.8926 68.4841 55.8926 68.6472 55.9164 68.8012C55.9259 68.8692 55.9402 68.9508 55.9545 69.0187C55.9831 69.1592 56.0308 69.3133 56.0689 69.4537C56.2166 70.0156 56.4454 70.5548 56.7552 71.085C56.7838 71.1348 56.8028 71.1847 56.8314 71.23C56.9267 71.3795 57.0268 71.52 57.1364 71.665C57.2127 71.7647 57.2841 71.8598 57.3652 71.955C57.4033 72.0003 57.4366 72.0547 57.4795 72.1C57.6368 72.2767 57.8274 72.4444 58.0133 72.6075C59.5383 74.0077 61.9306 75 65.4858 75C64.1419 74.0711 63.0363 72.9111 62.5502 71.52C60.7202 67.2289 63.8845 62.4666 65.7145 60.6087C66.2006 60.1466 66.9441 60.1466 67.4302 60.6087C67.9163 61.0709 67.9163 61.7778 67.4302 62.24C65.6002 63.98 63.4175 67.7047 64.7614 70.7225C65.6145 72.6936 67.7876 74.0711 71.2045 75H74.1402C72.1863 73.9578 70.9853 72.7797 70.2514 71.7375C69.0314 69.8797 68.6502 67.8089 69.2602 65.72C69.5032 65.14 70.0989 64.8047 70.7089 64.9225C71.3189 65.0403 71.7097 65.72 71.5858 66.3C71.3427 67.1111 71.0902 68.62 72.3102 70.36C73.5302 71.9822 76.3514 74.1934 83.0614 74.8912H88.7802C89.3902 74.8912 89.8763 74.42 90.0002 73.84C90.0002 73.3778 89.6189 72.7978 89.0089 72.68C88.885 72.68 80.7358 70.8177 77.6858 65.2487C76.0988 62.4666 77.6858 55.4975 77.6858 55.4975H77.5714L70.2514 52.96L69.8702 52.8512Z" fill="#018575"/>
</g>
<defs>
<clipPath id="clip0_153_3">
<rect width="61" height="58" fill="white" transform="translate(29 17)"/>
</clipPath>
</defs>
</svg>
