<svg width="147" height="150" viewBox="0 0 147 150" fill="none" xmlns="http://www.w3.org/2000/svg">
<path d="M73.5 6C36.2102 6 5.88 36.9492 5.88 75C5.88 113.051 36.2102 144 73.5 144C110.79 144 141.12 113.051 141.12 75C141.12 36.9492 110.79 6 73.5 6ZM104.979 86.1211C104.404 86.707 103.658 87 102.9 87C102.142 87 101.396 86.707 100.821 86.1211L73.5 58.2422L46.1787 86.1211C45.0303 87.293 43.1698 87.293 42.0213 86.1211C40.8729 84.9492 40.8729 83.0508 42.0213 81.8789L71.4213 51.8789C72.5698 50.7071 74.4302 50.7071 75.5787 51.8789L104.979 81.8789C106.127 83.0508 106.127 84.9492 104.979 86.1211Z" fill="#7ED957"/>
</svg>
