<svg width="50" height="50" viewBox="0 0 50 50" fill="none" xmlns="http://www.w3.org/2000/svg">
<path d="M0 7V9.78125C3.01172 12.4023 20.2891 27.4648 21.6562 28.6562C23.0625 29.8828 24.4648 30 25 30C25.5352 30 26.9375 29.8828 28.3438 28.6562C29.7617 27.4219 48.0469 11.4805 50 9.78125V7H0ZM0 12.4375V37.5312L15.125 25.5938C10.2227 21.3281 3.23047 15.25 0 12.4375ZM50 12.4375C46.9492 15.0938 39.8477 21.2656 34.875 25.5938L50 37.5V12.4375ZM16.6562 26.9375L0 40.0625V43H50V40.0312L33.3438 26.9375C31.4062 28.625 30.0117 29.8477 29.6562 30.1562C27.7383 31.8242 25.7578 32 25 32C24.2422 32 22.2617 31.8281 20.3438 30.1562C19.9922 29.8516 18.5977 28.6289 16.6562 26.9375Z" fill="#018575"/>
</svg>
