<svg width="45" height="54" viewBox="0 0 45 54" fill="none" xmlns="http://www.w3.org/2000/svg">
<g clip-path="url(#clip0_18_55)">
<path d="M5.14197 -1.59248e-05C4.98897 -1.59248e-05 4.83644 0.00834032 4.68494 0.024438C3.32219 0.171105 2.08854 0.940104 1.21179 2.19035C0.335044 3.4415 -0.079436 5.02444 0.044314 6.66192C0.771064 14.8064 3.1332 22.7471 6.87195 29.6154C10.2657 35.9722 14.8841 41.4683 20.2196 45.5034C25.9691 49.941 32.6089 52.7517 39.4354 53.6344C39.5899 53.6505 39.746 53.6571 39.9027 53.6571H39.9174C42.7434 53.6428 45.0321 50.8965 45.0209 47.5366V39.7393C45.0801 36.6486 43.1881 33.9923 40.6073 33.5595C38.5666 33.2393 36.5538 32.6424 34.6263 31.7866C32.7603 30.9522 30.6386 31.4897 29.2181 33.1612L26.848 35.9821C21.877 32.4872 17.725 27.5453 14.7865 21.6295L17.1581 18.8068C18.5606 17.1192 19.0136 14.5925 18.3124 12.3719C17.5931 10.0771 17.0912 7.68146 16.8212 5.24534C16.4619 2.22525 14.2687 -0.011642 11.7045 -1.59248e-05H5.14197ZM28.5223 -1.59248e-05C28.1083 -1.59248e-05 27.7723 0.400637 27.7723 0.894298C27.7723 1.38796 28.1083 1.78861 28.5223 1.78861C36.7933 1.78861 43.5223 9.81239 43.5223 19.6749C43.5223 20.1685 43.8583 20.5692 44.2723 20.5692C44.6863 20.5692 45.0223 20.1685 45.0223 19.6749C45.0223 8.82597 37.6206 -1.59248e-05 28.5223 -1.59248e-05ZM5.14197 3.57724H11.2709C11.6856 3.57724 12.0209 3.97964 12.0209 4.4733C12.0216 4.96696 11.6863 5.36587 11.2723 5.36587H5.14344C4.86444 5.3927 4.7274 5.54547 4.6659 5.63311C4.62765 5.68856 4.50363 5.8837 4.52088 6.10996C4.79313 9.15868 5.28736 12.1366 5.99011 14.9466C6.10861 15.4196 5.88296 15.9179 5.48621 16.0592C5.41496 16.0851 5.34359 16.0959 5.27234 16.0959C4.94909 16.0959 4.64985 15.8456 4.5531 15.4583C3.82335 12.5429 3.31024 9.45677 3.02674 6.28463C2.95924 5.38317 3.34578 4.7261 3.51453 4.48553C3.72453 4.18593 4.19097 3.67 4.95447 3.58772C5.01672 3.58146 5.07972 3.57724 5.14197 3.57724ZM28.5223 5.36587C28.1083 5.36587 27.7723 5.76652 27.7723 6.26018C27.7723 6.75384 28.1083 7.15449 28.5223 7.15449C34.3123 7.15449 39.0223 12.7708 39.0223 19.6749C39.0223 20.1685 39.3583 20.5692 39.7723 20.5692C40.1863 20.5692 40.5223 20.1685 40.5223 19.6749C40.5223 11.7853 35.1388 5.36587 28.5223 5.36587ZM28.5223 10.7317C28.1083 10.7317 27.7723 11.1324 27.7723 11.6261C27.7723 12.1197 28.1083 12.5204 28.5223 12.5204C31.8306 12.5204 34.5223 15.7301 34.5223 19.6749C34.5223 20.1685 34.8583 20.5692 35.2723 20.5692C35.6863 20.5692 36.0223 20.1685 36.0223 19.6749C36.0223 14.7436 32.6578 10.7317 28.5223 10.7317ZM41.2723 39.3498C41.6863 39.3498 42.0223 39.7504 42.0223 40.2441L42.0209 47.5366C42.0231 48.2127 41.8039 48.8511 41.4042 49.3322C41.0052 49.8125 40.4719 50.0789 39.9042 50.0816C39.8862 50.0816 39.7628 50.0782 39.7006 50.0711C37.0336 49.7259 34.4653 49.1148 32.057 48.2545C31.6603 48.1123 31.4353 47.6149 31.5546 47.1418C31.6738 46.6688 32.0917 46.4005 32.4877 46.5427C34.8097 47.3718 37.2858 47.9594 39.8485 48.2912L39.9188 48.2929C40.0673 48.292 40.2237 48.2141 40.3407 48.0728C40.4585 47.9315 40.5231 47.7413 40.5223 47.5401V40.2441C40.5223 39.7504 40.8583 39.3498 41.2723 39.3498Z" fill="#018575"/>
</g>
<defs>
<clipPath id="clip0_18_55">
<rect width="45" height="53.6588" fill="white"/>
</clipPath>
</defs>
</svg>
