<svg width="112" height="102" viewBox="0 0 112 102" fill="none" xmlns="http://www.w3.org/2000/svg">
<rect width="112" height="102" rx="28" fill="#7ED957"/>
<path d="M30.9813 23.2C28.7828 23.2 27 24.9882 27 27.1812V63.7999C27 65.9929 29.0016 68 31.2 68H36.9312C37.5984 71.9703 41.0437 75 45.2 75C49.3562 75 52.8016 71.9703 53.4688 68H66.4188C68.6117 68 70.4 66.2117 70.4 64.0187V27.2687C70.4 25.0265 68.6336 23.2 66.4625 23.2H30.9813ZM73.2 33V68C73.8727 71.9648 77.4437 75 81.6 75C85.7562 75 89.2016 71.9648 89.8687 68H92.8C94.9984 68 97 65.9984 97 63.7999V50.325C97 47.5085 94.9711 44.632 94.725 44.2875L88.9062 36.5C87.5719 34.8921 85.4773 33 83 33H73.2ZM80.2 40H88.0312L92.4938 45.95C92.9695 46.6226 94.2 48.6843 94.2 50.325V51.2H80.2C78.8 51.2 77.4 49.8 77.4 48.4V42.8C77.4 41.2523 78.8 40 80.2 40ZM45.2 61C48.2898 61 50.8 63.5101 50.8 66.5999C50.8 69.6898 48.2898 72.2 45.2 72.2C42.1102 72.2 39.6 69.6898 39.6 66.5999C39.6 63.5101 42.1102 61 45.2 61ZM81.6 61C84.6898 61 87.2 63.5101 87.2 66.5999C87.2 69.6898 84.6898 72.2 81.6 72.2C78.5102 72.2 76 69.6898 76 66.5999C76 63.5101 78.5102 61 81.6 61Z" fill="#018575"/>
</svg>
